<svg version="1.1" id="Layer_1" xmlns="http://www.w3.org/2000/svg" xmlns:xlink="http://www.w3.org/1999/xlink" x="0px" y="0px"
	 width="100%" viewBox="0 0 1024 640" enable-background="new 0 0 1024 640" xml:space="preserve">
<path fill="#000000" opacity="1.000000" stroke="none" 
	d="
M647.458862,387.459656 
	C651.437561,378.441986 654.798157,369.599335 657.579468,360.533508 
	C658.043152,359.021942 658.254272,356.959473 660.355408,356.811554 
	C662.066040,356.691162 662.762329,358.339417 663.646606,359.536469 
	C668.194641,365.693726 672.759766,371.838348 677.320435,377.986237 
	C679.990723,381.585876 680.582520,385.109375 678.762939,389.596619 
	C671.927429,406.454590 663.830811,422.642365 654.335510,438.141968 
	C650.111938,445.036285 650.148926,444.876404 657.885681,446.999756 
	C672.818298,451.098114 687.316345,456.488556 701.700012,462.197876 
	C708.964905,465.081635 716.142944,468.131897 723.199829,471.512756 
	C731.965881,475.712402 732.534851,476.860748 728.408752,485.410004 
	C726.309509,489.759613 724.303223,494.154480 722.168396,498.486267 
	C720.855103,501.151123 721.398743,502.742004 723.879089,504.727295 
	C735.061401,513.677734 746.552002,522.208069 758.075012,530.702820 
	C759.510437,531.761047 761.585022,532.567505 761.439209,534.711731 
	C761.265625,537.264526 758.718079,537.383972 756.974731,538.079529 
	C749.411499,541.097107 741.805481,544.009216 734.188782,546.890137 
	C729.940491,548.497070 726.690002,550.562622 726.427551,555.892944 
	C726.002441,564.527649 725.023621,573.134888 724.291016,581.754700 
	C723.985291,585.351807 724.661011,590.110291 721.146545,591.614929 
	C717.974182,592.973267 715.659729,588.715576 713.144836,586.717896 
	C703.892700,579.368408 694.784790,571.836182 685.482788,564.551331 
	C683.045349,562.642395 682.191833,560.520447 681.613647,557.506714 
	C680.304626,550.684143 680.349243,543.651428 678.227905,536.958862 
	C677.510559,534.695862 676.392883,533.302795 674.147217,532.393921 
	C650.968689,523.012451 627.008179,516.348755 602.655029,510.782501 
	C596.199463,509.306946 591.488525,509.502747 586.248352,513.851501 
	C569.776184,527.521423 550.935852,537.611877 532.660339,548.578613 
	C527.075745,551.929810 523.146484,551.483765 517.866638,548.357239 
	C498.230530,536.729492 478.456116,525.351074 460.735168,510.831604 
	C458.715454,509.176758 456.591705,508.783844 454.213654,509.300690 
	C428.379089,514.915771 403.005402,522.005432 378.305267,531.594849 
	C372.435486,533.873657 371.898865,538.287231 371.597626,542.528687 
	C371.194397,548.206421 369.196716,553.586548 369.213928,559.268188 
	C369.220062,561.294373 368.096069,562.603638 366.515381,563.763977 
	C355.360962,571.951904 345.074677,581.203369 334.465698,590.059082 
	C330.208160,593.613037 328.806000,593.278809 327.435608,588.033691 
	C327.019318,586.440369 326.634857,584.723450 326.787750,583.115662 
	C327.666412,573.875732 324.132874,565.021423 324.544861,555.831604 
	C324.801239,550.112854 320.584412,548.494446 316.268188,546.812439 
	C308.834686,543.915710 301.436798,540.916504 294.109894,537.760742 
	C288.325470,535.269348 288.320282,534.465759 293.172180,530.747314 
	C303.876404,522.543640 314.514587,514.253418 325.250732,506.091949 
	C328.697174,503.472015 330.276215,500.883820 327.762299,496.511139 
	C325.034698,491.766876 323.153534,486.544189 320.627563,481.673096 
	C318.633148,477.826935 318.927368,475.456390 323.283661,473.420715 
	C346.967529,462.353241 371.046021,452.437775 396.675018,446.744141 
	C397.472839,446.566895 398.226044,446.163116 398.978821,445.818542 
	C399.428436,445.612762 399.836670,445.316589 400.546448,444.891663 
	C396.526825,437.899872 392.770966,431.276794 388.929108,424.704010 
	C382.026093,412.894104 376.768127,400.316925 371.548431,387.718658 
	C370.704346,385.681427 369.952667,383.738922 371.501892,381.612854 
	C377.283844,373.678040 382.983459,365.683228 388.745544,357.733856 
	C389.348602,356.901855 390.244934,356.417847 391.917786,356.687561 
	C394.121429,362.737885 396.330536,369.093475 398.742279,375.371216 
	C406.410889,395.332306 416.176941,414.200867 428.141235,431.946716 
	C430.806366,435.899719 433.327118,437.895386 438.643463,436.410706 
	C443.515137,435.050232 448.546112,433.663727 453.576782,433.728729 
	C454.666901,431.417908 453.197815,430.266571 452.254120,428.992859 
	C445.405060,419.748779 438.906952,410.275177 433.514587,400.092285 
	C432.126892,397.471771 430.288025,396.062286 427.174103,396.262360 
	C424.932617,396.406372 422.254913,396.847961 421.802124,393.404205 
	C421.379517,390.189941 422.081604,387.698639 426.316986,387.423523 
	C423.099854,378.861237 419.887238,370.735687 416.987183,362.500061 
	C411.675720,347.416473 408.750977,331.849365 406.844513,315.956268 
	C405.046356,300.966614 406.238770,286.005981 405.584473,271.051666 
	C405.426422,267.439636 406.927704,265.497833 409.950073,264.147797 
	C447.470001,247.388046 485.002350,230.655685 522.460876,213.759766 
	C525.583618,212.351257 527.909058,213.435638 530.438354,214.562180 
	C547.461975,222.144485 564.463989,229.775208 581.475647,237.384354 
	C601.514343,246.347458 621.545837,255.326813 641.606934,264.239563 
	C644.493408,265.521942 646.031128,267.329224 646.096069,270.665405 
	C646.511536,292.008698 646.369568,313.373230 641.976013,334.327698 
	C634.747986,368.800537 620.856262,400.399475 599.269165,428.433411 
	C598.270874,429.729767 596.899353,430.820740 596.606750,433.307159 
	C600.857727,435.115509 605.923950,434.084534 610.184143,435.963165 
	C617.670227,439.264374 620.932678,434.948944 624.598328,429.340271 
	C633.271484,416.069885 640.739197,402.197906 647.458862,387.459656 
M499.790771,282.582550 
	C499.182922,282.313324 498.598846,281.951416 497.963715,281.788696 
	C485.973419,278.716614 473.758759,280.519562 461.643402,280.189148 
	C458.742554,280.110046 458.212708,282.376801 458.213379,284.719208 
	C458.217010,297.384430 458.282990,310.049805 458.244263,322.714813 
	C458.234802,325.803497 459.748016,326.684204 462.593475,326.740234 
	C466.188934,326.810974 469.391266,325.200928 472.875488,324.796417 
	C479.830170,323.989014 484.483948,319.782318 485.875977,312.934052 
	C486.446747,310.126038 487.321960,308.003784 490.487885,308.232086 
	C493.719360,308.465118 494.317688,310.862244 494.311493,313.631195 
	C494.285767,325.126129 494.287415,336.621246 494.330017,348.116089 
	C494.340729,351.005768 493.972321,353.599335 490.441620,354.005005 
	C486.739441,354.430359 486.032257,351.825287 485.690155,348.980286 
	C485.001984,343.257111 481.984985,339.395569 476.396576,337.871124 
	C471.921356,336.650330 467.497620,335.228729 462.718292,335.267731 
	C459.770752,335.291840 458.316406,336.178955 458.324188,339.176758 
	C458.355743,351.328094 457.539154,363.486694 459.002563,375.623169 
	C459.625244,380.787323 462.636658,384.261414 467.163513,385.331635 
	C478.803497,388.083374 490.624329,388.256561 502.218170,384.852203 
	C510.726776,382.353699 514.219604,375.218994 516.467041,367.543976 
	C517.424500,364.274139 518.666260,362.423523 522.158325,362.768738 
	C526.310242,363.179199 525.154907,366.438812 525.304871,368.908722 
	C525.711365,375.605469 524.479797,382.188873 523.761475,388.801849 
	C522.944031,396.327271 522.871338,396.284058 515.485718,396.283691 
	C494.653931,396.282593 473.822144,396.308533 452.990356,396.339844 
	C451.184296,396.342560 449.039459,395.904236 447.908356,397.662659 
	C446.549286,399.775330 448.402222,401.450562 449.451172,403.025238 
	C453.880310,409.674072 458.487335,416.204407 462.915314,422.853973 
	C467.203735,429.293976 472.722748,432.034576 480.681000,430.581482 
	C494.987793,427.969208 509.566162,428.380493 524.020264,428.138519 
	C540.817200,427.857391 557.643066,428.750580 574.367310,430.590393 
	C578.760742,431.073700 581.879578,430.103760 584.843506,426.666412 
	C592.284424,418.036896 598.388550,408.520935 604.285095,398.843811 
	C604.992981,397.682007 606.189758,396.377777 604.873840,394.592590 
	C604.316162,394.626953 603.629395,394.518188 603.058289,394.726532 
	C586.578064,400.737762 570.776306,399.724945 555.882507,390.058075 
	C553.009460,388.193298 551.147339,388.346680 549.645020,391.614410 
	C548.740662,393.581360 547.055664,394.649689 544.743225,394.175018 
	C542.168701,393.646606 541.892151,391.616974 541.941528,389.550690 
	C542.157104,380.524719 540.828918,371.614563 540.053406,362.661438 
	C539.834045,360.129028 539.739563,357.441925 543.271606,356.956482 
	C546.704224,356.484680 548.457092,358.015167 549.192444,361.426605 
	C553.582397,381.793091 574.862793,392.276642 594.818054,385.674988 
	C606.041138,381.962067 611.115295,371.359833 606.460022,360.588562 
	C604.173340,355.297882 599.446899,352.311493 594.693909,349.446503 
	C583.989380,342.994080 572.013428,339.084198 561.373657,332.444946 
	C548.641418,324.499969 542.719482,310.757721 546.095703,296.448334 
	C551.665527,272.841888 575.926758,265.863831 591.957581,270.288910 
	C597.509460,271.821411 602.209106,274.921539 607.095520,277.358765 
	C608.882996,276.618317 609.249512,275.036682 610.052490,273.812836 
	C611.149353,272.141083 612.592896,271.056000 614.640259,271.578003 
	C616.609253,272.079987 616.921387,273.861206 617.020630,275.554016 
	C617.517273,284.026611 617.985718,292.501099 618.405273,300.977814 
	C618.506592,303.023468 618.442444,305.321686 615.697876,305.478973 
	C613.410828,305.609985 610.900146,305.553467 609.887024,302.708527 
	C609.495972,301.610443 609.159729,300.487457 608.690369,299.423492 
	C602.673096,285.784027 594.585388,278.420685 578.585388,280.188202 
	C571.924988,280.923981 565.881470,283.488037 563.843933,290.297211 
	C561.879211,296.862854 562.449463,303.502655 568.139099,308.701447 
	C571.001770,311.317169 574.139709,313.424988 577.544983,315.227264 
	C594.294800,324.092255 613.238708,329.506561 625.135864,345.970276 
	C626.649048,344.209503 627.646851,342.728394 627.699463,340.761322 
	C627.820129,336.253876 629.436890,332.012085 630.229980,327.621948 
	C633.146545,311.478149 633.423218,295.249329 633.170166,278.940521 
	C633.111572,275.169342 631.502380,273.332031 628.220764,271.861298 
	C595.567993,257.227295 562.953247,242.508072 530.385681,227.685394 
	C527.041809,226.163498 524.165710,226.167969 520.885071,227.656891 
	C491.789917,240.861633 462.654785,253.978317 433.535370,267.129669 
	C431.965424,267.838715 429.968933,268.031494 429.268005,270.858032 
	C431.281219,270.858032 433.049774,270.858246 434.818298,270.858002 
	C460.483124,270.854828 486.148346,270.926697 511.812347,270.779633 
	C516.476501,270.752930 518.372192,272.217346 518.328857,277.095215 
	C518.274292,283.233978 519.001953,289.380859 519.422241,295.522156 
	C519.594604,298.040924 520.195984,300.711090 516.476624,301.227722 
	C512.915771,301.722260 511.368378,300.064148 510.772491,296.639160 
	C509.685883,290.393341 506.644196,285.441437 499.790771,282.582550 
M432.712128,369.759521 
	C434.505615,372.910919 434.675110,376.948639 437.853149,379.815643 
	C439.283234,376.223938 439.711121,372.986511 439.706573,369.635620 
	C439.674011,345.649323 439.667175,321.662964 439.685364,297.676605 
	C439.688171,293.980011 438.974609,290.408966 438.224884,286.819580 
	C437.409637,282.916382 435.168793,280.623230 431.182922,280.171112 
	C426.752014,279.668488 422.238251,279.322876 423.059174,272.929718 
	C418.214325,273.281921 417.851471,276.157410 417.916779,279.349152 
	C418.175293,291.977722 417.815826,304.590424 419.125824,317.231628 
	C420.088318,326.519379 422.269684,335.466095 424.488464,344.404266 
	C426.561920,352.757050 429.742035,360.835083 432.712128,369.759521 
M532.678772,515.162842 
	C537.971313,512.024841 543.352722,509.011169 548.120972,505.139832 
	C547.963074,504.691406 547.805115,504.242981 547.647217,503.794556 
	C532.250549,503.794556 516.853882,503.794556 500.635712,503.794556 
	C506.806885,508.765350 513.468628,511.570129 519.115967,515.797974 
	C523.863159,519.351929 527.805603,519.055298 532.678772,515.162842 
M481.170807,496.385681 
	C480.049896,497.197174 478.261200,497.304199 478.146271,499.163239 
	C480.645569,503.269318 484.016968,503.510559 487.920624,501.547211 
	C489.666199,500.669281 491.113434,499.610291 490.032288,497.357880 
	C489.119629,495.456482 487.799957,493.989960 485.428467,494.597992 
	C484.172729,494.919983 483.002136,495.574097 481.170807,496.385681 
M448.170074,486.275604 
	C448.518341,486.007324 449.205383,485.575043 449.166260,485.494324 
	C447.259583,481.556152 447.307007,477.087372 445.882935,473.099487 
	C444.910736,470.376862 444.500061,467.098328 441.286713,465.288269 
	C443.402802,472.190308 445.518890,479.092377 448.170074,486.275604 
M519.292725,465.779327 
	C520.188110,468.338593 524.547302,466.534912 524.476074,470.311768 
	C525.517944,465.009644 525.375366,464.867950 512.862244,458.322235 
	C512.231079,463.052338 517.802612,462.150970 519.292725,465.779327 
M551.498596,474.363892 
	C554.447754,473.626221 555.385620,471.363007 556.202087,468.422882 
	C553.588745,468.288605 551.473389,467.639160 549.115906,465.267334 
	C549.178101,469.056396 548.297058,471.850769 551.498596,474.363892 
M482.916870,470.634583 
	C484.192902,472.762512 482.208771,476.168427 485.960632,477.404083 
	C484.216492,472.968109 486.028290,467.681610 482.493774,462.779053 
	C481.202423,465.908722 482.558746,467.862122 482.916870,470.634583 
M413.924225,484.643463 
	C413.290253,483.479889 412.694794,482.293060 412.010529,481.159851 
	C411.434784,480.206451 411.367493,478.775848 408.733948,477.811829 
	C413.294067,484.580658 413.897278,492.045502 419.146240,497.024902 
	C416.719177,493.441925 416.300934,488.997375 413.924225,484.643463 
M494.502014,472.253418 
	C494.812836,473.687836 493.756134,475.770966 496.322052,476.181244 
	C497.767639,471.757751 495.768219,464.471985 492.066742,462.186981 
	C492.973846,465.575653 494.491638,468.398071 494.502014,472.253418 
M471.973328,469.981354 
	C473.927032,472.793823 471.895935,477.945465 476.999695,478.932495 
	C474.641571,475.002594 475.727692,469.602386 471.966858,466.049347 
	C471.036621,467.426392 471.710632,468.346344 471.973328,469.981354 
M437.173462,486.646667 
	C435.681549,482.785217 434.189636,478.923737 432.697693,475.062286 
	C431.446564,479.712524 434.707092,487.191650 438.266693,489.197968 
	C437.934235,488.333496 437.714050,487.760925 437.173462,486.646667 
M458.569183,476.763214 
	C457.399872,474.050598 457.594147,470.238586 453.161133,470.081787 
	C456.628448,473.530396 456.537933,478.796051 459.743042,483.814148 
	C460.518097,480.530853 459.586670,478.998596 458.569183,476.763214 
M568.154419,473.796387 
	C568.177979,470.683807 569.636047,467.518677 567.766968,464.487640 
	C568.057373,468.898315 564.048767,473.666870 568.577393,478.384644 
	C569.604126,476.469513 568.386475,475.583862 568.154419,473.796387 
M589.719482,472.712189 
	C589.837585,471.432343 591.273499,469.974030 589.240112,468.917847 
	C586.027954,478.095123 586.027954,478.095123 587.059814,481.701965 
	C587.991760,478.566498 588.757446,475.990570 589.719482,472.712189 
M579.064819,473.549622 
	C579.481018,471.161804 580.339417,468.755524 578.865967,466.421265 
	C579.051514,470.319061 575.861389,473.905731 578.185059,478.000641 
	C578.429749,476.771606 578.674377,475.542542 579.064819,473.549622 
M610.327698,483.844360 
	C610.391113,484.302216 610.454529,484.760071 610.517883,485.217926 
	C612.138916,484.278809 615.212646,475.166840 614.462341,472.717957 
	C612.208740,476.097687 611.904480,479.894928 610.327698,483.844360 
M624.306152,483.183929 
	C624.764099,482.389343 625.775818,481.683014 624.729675,480.632721 
	C619.985596,483.875183 619.348206,485.730164 621.817444,490.390747 
	C622.518250,487.873169 622.010986,485.323059 624.306152,483.183929 
M603.089600,479.630463 
	C603.653809,477.542816 604.744141,475.527405 603.598694,473.163177 
	C602.489746,476.936218 601.380798,480.709229 599.895203,485.763550 
	C602.496094,483.577057 602.252136,481.783630 603.089600,479.630463 
z"/>
<path fill="#000000" opacity="1.000000" stroke="none" 
	d="
M773.430176,350.661224 
	C772.860596,348.685638 771.553894,349.813660 770.740356,350.083710 
	C758.708862,354.077759 746.015625,355.072449 733.822632,358.308136 
	C731.897522,358.819000 729.935059,359.237213 728.069580,359.916962 
	C717.311096,363.837097 716.341492,365.625916 719.205078,376.344025 
	C719.972900,379.218262 721.067810,382.004761 721.847717,384.876312 
	C722.967773,389.000214 724.931824,390.855011 729.817566,391.071991 
	C740.293823,391.537262 746.695251,406.230438 740.812439,415.041565 
	C739.576111,416.893433 738.093811,417.175842 736.738586,415.652374 
	C730.996582,409.197449 723.048218,407.209167 715.307190,404.772919 
	C708.501221,402.630890 708.862488,395.985138 706.991089,390.984070 
	C704.441345,384.170380 702.969543,376.961670 700.707947,370.029175 
	C698.908142,364.511902 699.589600,360.075684 704.283997,356.210327 
	C711.456299,350.304779 718.088257,343.800446 724.940979,336.623871 
	C720.838440,333.115692 717.096619,329.885010 713.317627,326.698364 
	C711.591492,325.242767 709.781677,326.197754 708.119690,326.820190 
	C704.227844,328.277679 700.382141,329.862183 696.544128,331.458679 
	C689.132751,334.541534 687.444702,339.188019 691.194519,346.513153 
	C692.169678,348.418121 691.956116,349.815704 690.750977,351.534027 
	C688.326111,354.991425 685.267761,357.756378 682.117065,360.498322 
	C679.923279,362.407532 678.513550,361.673279 677.405090,359.527802 
	C675.433167,355.711273 674.169861,351.524963 671.243958,348.202850 
	C670.786621,347.683563 670.849060,346.619568 670.839661,345.805481 
	C670.674683,331.594727 677.377441,321.272186 690.353333,315.592621 
	C695.986694,313.126831 701.597900,310.607788 707.177673,308.023163 
	C711.215332,306.152863 715.107910,306.188751 719.131348,308.143250 
	C722.866394,309.957611 726.733887,311.499451 730.544067,313.158966 
	C732.979736,314.219818 735.217957,313.815094 735.464294,310.987305 
	C737.066895,292.586670 746.230713,277.734558 757.215759,263.683197 
	C758.017090,262.658112 759.022644,261.691315 759.073120,259.990295 
	C755.035461,258.441437 751.031616,256.366943 746.776855,255.420349 
	C742.251282,254.413467 738.430969,256.904602 735.197327,259.960938 
	C733.752319,261.326691 732.619507,263.017731 731.220459,264.438568 
	C729.919189,265.760101 728.333740,266.744293 726.432495,266.922119 
	C724.474792,267.105194 712.908569,260.515533 712.174377,258.892853 
	C709.975647,254.033798 710.884949,249.236267 716.510315,244.853638 
	C728.329285,235.645721 734.414001,221.292343 746.424744,212.335175 
	C748.537231,210.759766 747.696777,208.847168 746.307617,207.107834 
	C743.590149,203.705383 743.108093,199.850433 744.279480,195.774719 
	C745.282532,192.284576 747.361328,191.649582 750.233948,193.883499 
	C752.204590,195.416016 754.208557,196.920120 756.056091,198.593170 
	C759.153320,201.397888 762.597900,203.107147 766.891541,202.819321 
	C769.320496,202.656494 771.693054,203.316330 773.375244,204.978439 
	C780.073853,211.597000 788.526794,215.747299 795.930115,221.337021 
	C810.213928,232.121674 817.956238,247.323929 823.110168,263.994598 
	C826.934448,276.364349 826.265564,288.903839 823.841614,301.454803 
	C823.054321,305.531677 822.555664,309.664795 821.946716,313.775452 
	C821.378967,317.607758 819.566833,318.184753 816.478760,316.025421 
	C811.510986,312.551666 808.088562,307.584259 803.806213,302.855377 
	C803.048889,305.139282 804.491211,306.280914 805.403503,307.406128 
	C815.589355,319.970093 826.523376,331.839600 838.730530,342.477051 
	C844.749878,347.722504 853.908691,346.411804 859.018860,339.779419 
	C862.290771,335.532898 863.679504,330.245758 866.918701,325.930573 
	C874.219238,316.205353 884.362976,313.270935 895.120361,317.871124 
	C901.520691,320.608124 905.112793,325.705322 906.819275,331.985596 
	C909.095337,340.362152 909.827454,348.842499 908.393921,357.656494 
	C906.769592,367.642792 906.343933,377.824249 905.403992,387.921509 
	C905.202576,390.084778 905.268555,392.701538 903.077271,393.632111 
	C900.411438,394.764221 898.835205,392.111176 897.382507,390.548279 
	C889.964111,382.567108 885.513184,372.937927 882.760071,362.513672 
	C881.627808,358.226257 879.856628,354.376190 876.678101,351.313293 
	C874.636536,349.345978 872.140808,348.225220 869.500061,350.265411 
	C866.909607,352.266876 866.999817,354.723907 868.780701,357.291046 
	C869.252380,357.970917 869.514893,358.795807 869.985901,359.476257 
	C875.325439,367.188782 875.697510,375.209503 872.715576,384.061584 
	C870.244202,391.398071 868.199158,398.988831 868.069092,406.892365 
	C867.992126,411.571014 869.440857,415.737915 872.219543,419.407318 
	C876.240845,424.717407 880.309265,430.022247 885.631165,434.137207 
	C888.497253,436.353210 888.969788,438.920197 887.388916,442.032379 
	C886.785889,443.219452 886.302734,444.494324 885.539246,445.568787 
	C878.113953,456.018738 875.426392,467.863678 875.227539,480.433075 
	C875.180359,483.412323 874.221375,486.273895 872.410645,488.284973 
	C867.931519,493.259674 867.645081,498.652374 869.523071,504.589752 
	C869.620667,504.898468 869.647522,505.248291 869.625122,505.573303 
	C869.390686,508.974640 859.964050,514.732544 855.035095,514.495056 
	C850.567749,514.279785 848.614868,511.376892 848.962708,505.507904 
	C849.164673,502.099091 850.200684,499.075562 852.296814,496.280396 
	C862.613220,482.524231 864.741943,467.234283 860.527527,450.816772 
	C859.786316,447.929413 858.231018,445.978363 855.453186,444.495422 
	C845.312866,439.082062 835.294006,433.554871 828.352112,423.756592 
	C824.946838,418.950073 823.875244,413.439331 821.288757,406.799805 
	C821.078369,411.775360 822.574646,415.036591 823.476807,418.276062 
	C824.515808,422.006561 823.216492,423.261292 819.778564,423.289886 
	C816.579529,423.316528 813.591125,424.009247 810.783264,425.634094 
	C811.417603,428.915070 813.625549,430.801575 815.445374,432.895264 
	C818.954041,436.932007 818.898560,438.827789 814.858582,442.431793 
	C806.378113,449.997284 796.832458,456.100281 787.404907,462.363617 
	C786.157043,463.192627 784.890015,463.992920 783.644409,464.825317 
	C776.558655,469.560364 775.815552,470.882324 779.084045,478.968262 
	C781.365173,484.611267 777.507629,486.525757 774.308655,488.946442 
	C771.118042,491.360809 768.086365,491.965729 764.665283,488.474182 
	C755.130615,478.743042 755.604553,468.409210 766.353455,459.917633 
	C773.146973,454.550812 779.938660,449.180206 786.652283,443.714417 
	C791.139343,440.061371 791.037720,438.799805 786.631592,435.131042 
	C780.543274,430.061646 775.554993,424.221954 772.549316,416.687744 
	C770.601074,411.804199 771.427795,407.730316 774.058289,403.498260 
	C777.796448,397.484131 783.581787,393.823456 789.084351,389.801483 
	C789.731628,389.328369 790.305420,388.754791 791.203125,387.976471 
	C786.882568,383.795715 781.274475,382.281647 776.597778,379.268280 
	C769.810608,374.894989 765.257263,368.589478 760.427368,362.457916 
	C758.502808,360.014648 759.857605,358.596863 762.071838,357.362946 
	C765.844604,355.260468 769.553162,353.042816 773.430176,350.661224 
z"/>
<path fill="#000000" opacity="1.000000" stroke="none" 
	d="
M323.049744,408.857788 
	C319.141083,411.411499 316.462982,415.027710 312.444458,416.760590 
	C308.825043,412.794495 307.209900,402.342224 309.486084,397.952606 
	C309.861969,397.227722 310.421173,396.118958 310.996490,396.051849 
	C315.802521,395.491058 318.665863,390.310852 323.853577,390.745880 
	C325.902008,390.917694 327.282532,390.146362 327.980804,387.994904 
	C329.828156,382.303009 331.746552,376.629517 333.833069,371.021790 
	C334.891602,368.176849 333.998810,366.257660 331.801453,364.538361 
	C328.483185,361.942047 324.810577,359.798218 320.794189,358.842804 
	C306.801453,355.514313 292.522888,353.475342 277.665497,349.055054 
	C280.529358,353.078156 284.013947,354.468353 287.182770,356.177277 
	C292.633850,359.116943 292.510925,359.767975 289.130920,364.597656 
	C282.618530,373.903259 274.031891,380.380280 263.828186,384.982880 
	C263.077606,385.321442 262.374939,385.809387 261.734222,386.331299 
	C261.378662,386.621002 261.197632,387.125031 260.704041,387.899445 
	C263.789398,390.389465 267.048615,392.665070 269.892914,395.375977 
	C282.988708,407.857727 283.446960,411.925293 271.535156,427.968475 
	C269.485260,430.729340 266.651306,432.963776 263.967072,435.184540 
	C260.202118,438.299500 259.957123,439.693237 263.867859,442.903625 
	C271.205322,448.927063 278.412964,455.182129 286.231720,460.525635 
	C294.494720,466.172760 294.412018,475.465332 292.215576,481.856781 
	C289.096832,490.932007 280.092651,492.878601 273.591248,486.091064 
	C271.638092,484.051971 270.340851,482.013519 272.070526,479.009521 
	C273.648010,476.269745 271.998596,472.601440 274.875519,469.876831 
	C269.469025,465.375793 263.833588,461.925934 258.283264,458.369476 
	C250.703659,453.512726 243.285110,448.439728 236.600647,442.380981 
	C232.030975,438.239044 232.052277,437.201691 235.840607,432.562347 
	C237.584030,430.427307 239.804398,428.501129 240.137054,425.402313 
	C238.065628,423.564789 235.576981,423.460999 233.093750,423.289642 
	C227.661423,422.914917 226.799820,421.642395 228.116257,416.339508 
	C228.581360,414.466095 230.033310,412.793610 229.153290,409.722015 
	C226.789062,415.311310 225.279114,420.435944 221.890152,424.728577 
	C215.074310,433.361969 206.019455,438.895233 196.492905,443.741333 
	C192.221481,445.914215 190.962219,449.180603 190.026749,453.542053 
	C187.570496,464.993988 188.236816,475.993103 193.298111,486.583649 
	C194.869781,489.872314 196.705063,493.088562 198.825562,496.047028 
	C201.179108,499.330566 202.231277,502.801758 202.144592,506.786652 
	C202.005188,513.194885 199.050613,515.705078 192.868759,514.247009 
	C189.064987,513.349915 185.898773,511.129242 182.924942,508.676086 
	C181.679657,507.648865 181.111755,506.222290 181.527008,504.641327 
	C183.131927,498.530670 183.076447,492.917999 178.337524,487.860962 
	C176.472641,485.870880 175.675797,482.926880 175.839005,479.927917 
	C176.467697,468.376160 173.072144,457.925751 167.044968,448.203003 
	C166.081390,446.648590 165.331604,444.963043 164.403442,443.384918 
	C162.238754,439.704285 162.473618,436.774994 166.094620,433.847015 
	C171.553314,429.433136 175.958237,423.918793 179.984085,418.191803 
	C183.915771,412.598785 183.566391,406.183838 182.354706,399.893677 
	C181.013397,392.930573 179.843597,385.840851 177.513367,379.186432 
	C174.840637,371.553955 178.367523,365.658783 181.216492,359.376556 
	C181.558273,358.622955 182.006989,357.901459 182.502472,357.236908 
	C184.272903,354.862427 184.321854,352.579620 181.987671,350.615814 
	C179.567444,348.579651 177.062363,348.865906 174.772247,350.899719 
	C171.291504,353.990967 169.417511,357.971252 168.296585,362.444397 
	C165.415298,373.942383 160.638016,384.402924 151.522125,392.449829 
	C148.750778,394.896149 146.689911,394.262451 146.336868,390.840271 
	C144.598846,373.993286 141.649796,357.209595 142.835968,340.176361 
	C143.051788,337.077209 144.097275,334.006012 144.987503,330.989136 
	C147.722305,321.721161 154.479355,317.169464 163.619659,315.975403 
	C172.961716,314.755005 179.645950,319.400696 184.637634,326.760498 
	C186.775406,329.912445 188.418854,333.414154 190.142197,336.829956 
	C194.780121,346.022766 205.270996,348.505249 213.055801,341.786041 
	C224.297791,332.082855 234.436935,321.257874 243.913818,309.826355 
	C244.926910,308.604309 245.596069,307.097168 246.172485,305.520538 
	C240.772339,308.938751 237.718887,315.271667 231.104248,317.329437 
	C228.739532,314.585754 229.120316,311.213959 228.558884,308.248383 
	C225.472061,291.943176 223.641251,275.662415 229.604218,259.476135 
	C236.657425,240.330429 246.935577,223.914886 265.923706,214.428757 
	C267.384705,213.698898 268.838135,212.695358 269.903687,211.476761 
	C274.804413,205.872070 280.418396,202.150513 288.287018,201.920700 
	C292.771149,201.789749 295.668152,197.696671 299.250244,195.339951 
	C300.988342,194.196457 302.575928,191.603592 304.796722,192.962296 
	C307.331512,194.513107 307.955627,197.554413 307.649780,200.495758 
	C307.405334,202.846954 306.455688,205.021194 304.969238,206.875717 
	C302.903503,209.452942 303.081604,211.425674 305.834045,213.563934 
	C318.254822,223.212997 325.197601,237.942993 337.441467,247.834152 
	C339.874847,249.799927 340.768890,252.904037 339.679291,256.487946 
	C338.643402,259.895081 337.212097,262.199463 333.401001,262.370758 
	C332.954468,262.390869 332.502319,262.768524 332.091919,263.039642 
	C323.976715,268.401215 323.171448,268.293671 317.016510,260.991577 
	C311.984833,255.022095 306.896454,253.850647 299.805542,257.029236 
	C291.733978,260.647430 291.616730,260.736359 297.211700,268.113190 
	C303.984589,277.043030 310.101288,286.292084 312.983337,297.289581 
	C314.113800,301.603210 315.223175,305.941711 315.958160,310.333160 
	C316.494141,313.535522 317.862213,314.350281 320.719299,313.082794 
	C324.670563,311.329926 328.654083,309.646576 332.570374,307.818970 
	C335.951385,306.241150 339.416321,306.129913 342.740173,307.527588 
	C350.094116,310.619904 357.326782,313.998993 364.640594,317.188507 
	C373.130554,320.890839 377.244751,327.618500 378.348816,336.545685 
	C378.529724,338.008606 379.019287,339.441742 379.448425,340.863861 
	C380.495178,344.332733 380.860748,347.533875 378.164703,350.674774 
	C375.396118,353.900208 375.427399,358.898865 371.622498,361.837372 
	C367.835205,359.811432 364.921997,356.919586 362.122009,353.858826 
	C359.455780,350.944366 358.803009,348.132233 361.061096,344.447754 
	C363.461700,340.530884 361.080658,334.214020 356.973969,332.471924 
	C352.226715,330.458160 347.426971,328.568268 342.654358,326.614105 
	C340.513153,325.737335 338.626984,325.608032 336.726379,327.438446 
	C333.505920,330.539978 330.067261,333.414948 326.161774,336.880798 
	C332.413757,342.744385 338.274139,348.592957 344.514618,354.003021 
	C352.087952,360.568634 352.843323,362.495209 349.945618,372.191803 
	C347.330200,380.943665 344.801147,389.721619 342.137726,398.458710 
	C340.100983,405.140045 333.650421,405.205688 328.537811,407.095795 
	C326.886902,407.706146 324.932983,407.583466 323.049744,408.857788 
z"/>
<path fill="#000000" opacity="1.000000" stroke="none" 
	d="
M427.370361,185.464569 
	C417.750122,189.764099 408.498779,193.958710 399.192749,198.028336 
	C394.175537,200.222427 392.732086,199.341476 391.847961,193.853561 
	C391.530121,191.880997 391.342194,189.887848 391.067413,187.907913 
	C390.478516,183.664444 391.875793,180.653229 395.784363,178.418732 
	C400.623413,175.652298 405.136932,172.316406 409.606995,168.596405 
	C404.092957,168.915237 398.734253,169.023666 393.383667,169.200684 
	C389.509216,169.328857 388.164459,167.912003 387.657501,164.167953 
	C386.188782,153.320358 384.241516,142.538620 382.645111,131.706985 
	C380.634552,118.065094 378.664459,104.414810 376.922485,90.736870 
	C376.162109,84.766312 377.731262,83.801567 383.252014,86.207596 
	C399.406616,93.248085 415.558472,100.294945 431.700378,107.364426 
	C433.152527,108.000397 435.244812,108.148209 435.231171,110.336914 
	C435.218506,112.370590 433.279327,112.879211 431.866486,113.640419 
	C422.827698,118.510292 413.759308,123.325165 404.704376,128.156143 
	C405.021454,128.503052 405.302979,128.930557 405.393677,128.893311 
	C412.226837,126.087563 416.600494,129.623444 420.725433,134.490845 
	C423.946686,138.291885 427.618835,141.708618 431.049072,145.335449 
	C433.562592,147.993011 435.796112,149.004913 439.694305,146.939926 
	C451.746704,140.555435 464.097107,134.729797 476.379852,128.786362 
	C479.514008,127.269775 481.608673,125.032166 483.412872,122.042511 
	C490.465179,110.356461 497.811523,98.848228 504.989441,87.237328 
	C506.319214,85.086235 508.280182,84.052025 510.932373,83.358047 
	C508.924652,79.275711 504.846649,77.654716 501.952362,74.854698 
	C500.206940,73.166130 499.014679,71.562599 500.565643,69.256866 
	C508.561859,57.369469 514.482422,44.235004 522.695312,32.481163 
	C523.441101,31.413919 524.315552,30.436567 525.038757,29.531853 
	C527.400452,29.535400 528.068359,31.270853 528.865356,32.623596 
	C535.962952,44.670559 542.953796,56.780407 550.068420,68.817215 
	C551.653687,71.499283 551.107239,73.321121 548.822815,75.283730 
	C546.083008,77.637512 542.731873,79.372818 540.776733,82.568565 
	C550.028381,89.887459 554.566345,100.502220 559.942688,110.195549 
	C566.749390,122.467728 575.977295,130.879822 588.896301,136.028183 
	C596.910400,139.221909 604.541321,143.416733 612.205994,147.426361 
	C614.917236,148.844681 616.685364,148.564972 618.758301,146.412704 
	C623.368652,141.625900 628.390381,137.223557 632.849365,132.306305 
	C636.571045,128.202194 640.346558,126.390968 645.498291,129.483276 
	C645.971130,129.767120 646.762024,129.521088 647.760071,128.789627 
	C643.982239,126.693108 640.233704,124.541473 636.419800,122.512848 
	C630.540833,119.385895 624.624390,116.328796 618.706665,113.275406 
	C617.317932,112.558815 615.982239,111.793228 616.105469,110.005501 
	C616.217529,108.380196 617.670288,108.048157 618.894165,107.524406 
	C634.652832,100.780663 650.379456,93.960815 666.174683,87.303970 
	C672.369446,84.693222 673.881592,85.806213 673.224976,92.361038 
	C671.831909,106.268661 669.586121,120.062592 667.634033,133.896225 
	C666.197571,144.075424 664.848206,154.274155 663.362122,164.454422 
	C662.840820,168.025940 661.535767,169.235733 657.937073,169.199966 
	C652.438904,169.145340 647.055847,168.363281 641.398987,167.293686 
	C641.263916,169.734879 643.054077,170.250198 644.284729,171.076630 
	C648.428223,173.859283 652.565308,176.660507 656.823120,179.261017 
	C660.035095,181.222748 661.105835,183.426346 660.485901,187.480484 
	C658.251953,202.089584 657.728699,200.575882 645.913330,195.241257 
	C616.332153,181.885300 586.700256,168.641525 557.075867,155.381470 
	C547.968201,151.304825 538.806824,147.348251 529.695801,143.279160 
	C526.763977,141.969772 524.082642,142.058319 521.094543,143.419678 
	C503.373505,151.493347 485.583984,159.416763 467.812073,167.378571 
	C454.451111,173.364304 441.082001,179.331924 427.370361,185.464569 
z"/>
<path fill="#000000" opacity="1.000000" stroke="none" 
	d="
M390.332825,213.241577 
	C426.900085,196.682007 463.129517,180.292252 499.373749,163.935272 
	C507.103363,160.446884 514.906250,157.120712 522.632996,153.626099 
	C524.790283,152.650436 526.689697,152.747375 528.831360,153.716553 
	C560.350586,167.979874 591.879272,182.222641 623.438782,196.396545 
	C646.936462,206.949783 670.454956,217.457932 694.034180,227.827042 
	C697.703735,229.440765 699.441650,231.471542 699.402161,235.666443 
	C699.215942,255.491135 699.227051,275.318695 699.340393,295.144257 
	C699.361450,298.830139 698.067383,300.961151 694.675903,302.427429 
	C687.187622,305.664825 679.944336,309.419037 673.077332,313.858856 
	C672.104675,314.487701 671.127380,315.188019 669.418457,314.654755 
	C667.999390,311.210938 668.701538,307.317657 669.212830,303.747101 
	C671.564819,287.322327 670.507507,270.821869 670.922974,254.354904 
	C671.020996,250.468674 669.769104,248.280518 666.180542,246.695908 
	C645.796631,237.694992 625.484314,228.531525 605.166626,219.381287 
	C580.733948,208.377853 556.287903,197.403091 531.930908,186.234360 
	C527.936218,184.402649 524.582153,183.907059 520.347961,185.838715 
	C484.921631,202.000275 449.389130,217.929214 413.889221,233.929535 
	C404.184601,238.303528 394.549744,242.842804 384.742310,246.972382 
	C381.215698,248.457336 380.294312,250.575211 380.147522,254.184784 
	C379.367950,273.358429 381.387146,292.404724 382.384155,311.497223 
	C382.425995,312.298737 382.389496,313.104309 382.389496,313.844177 
	C380.518738,315.144684 379.086060,314.153046 377.634308,313.390625 
	C370.564056,309.677490 363.575623,305.795929 356.392365,302.316315 
	C353.030426,300.687775 351.800446,298.354645 351.803284,294.837494 
	C351.819366,275.011353 351.876312,255.183899 351.655487,235.359833 
	C351.607849,231.083084 354.066772,229.540359 357.215149,228.128891 
	C368.144470,223.229095 379.072052,218.325348 390.332825,213.241577 
z"/>
</svg>